<svg xmlns="http://www.w3.org/2000/svg" width="102" height="103" viewBox="0 0 102 103">
    <g fill="#CE8835" fill-rule="evenodd">
        <path d="M68.527 1.675A5.19 5.19 0 0 1 68.71.239c.014-.048.031-.098.048-.146A.115.115 0 0 1 68.91.02l.28.139a23.91 23.91 0 0 1 3.037 1.873c.912.66 1.768 1.393 2.562 2.189a15.294 15.294 0 0 1 1.623 1.913 9.068 9.068 0 0 1 1.204 2.369c.254.732.373 1.503.351 2.277a5.871 5.871 0 0 1-1.052 3.186c-.046.062-.098.12-.154.173h-.072a.152.152 0 0 1-.065-.039 7.241 7.241 0 0 1-.193-.191c-1.16-1.196-2.309-2.392-3.414-3.65a34.98 34.98 0 0 1-2.06-2.517 16.634 16.634 0 0 1-1.19-1.808 10.487 10.487 0 0 1-1.009-2.503 7.352 7.352 0 0 1-.231-1.755zM32.743 0c.03.037.055.078.075.122.085.283.14.574.166.868a7.196 7.196 0 0 1-.193 2.452 10.61 10.61 0 0 1-.936 2.366 15.43 15.43 0 0 1-1.079 1.696 34.285 34.285 0 0 1-2.143 2.648 108.036 108.036 0 0 1-3.544 3.794c-.062.065-.13.127-.195.187a.109.109 0 0 1-.142 0c-.048-.06-.098-.117-.142-.182a5.539 5.539 0 0 1-.681-1.34 5.883 5.883 0 0 1-.335-2.442 7.074 7.074 0 0 1 .482-2.062 9.152 9.152 0 0 1 .963-1.806 14.433 14.433 0 0 1 1.685-2.026 21.976 21.976 0 0 1 3.76-3.036C31.115.83 31.765.457 32.43.11a.592.592 0 0 1 .313-.11zM29.454 11.045c0-.04.006-.078.017-.115a4.66 4.66 0 0 1 .169-.304 12.976 12.976 0 0 1 1.61-2.124 16.345 16.345 0 0 1 6.759-4.4c1.149-.398 2.333-.69 3.536-.873a18.516 18.516 0 0 1 3.563-.215c.065.003.13.012.193.026.015 0 .034.048.027.063-.032.07-.069.138-.111.203-.304.449-.632.88-.982 1.294a20.056 20.056 0 0 1-4.2 3.773 16.497 16.497 0 0 1-7.36 2.705 16.46 16.46 0 0 1-2.522.065 4.403 4.403 0 0 1-.699-.098zM72.268 11.047a3.272 3.272 0 0 1-.534.081c-.737.054-1.478.054-2.215 0a16.027 16.027 0 0 1-3.354-.638 16.868 16.868 0 0 1-5.253-2.692 19.858 19.858 0 0 1-3.958-3.913c-.178-.24-.342-.479-.51-.718a.086.086 0 0 1-.005-.088.087.087 0 0 1 .077-.046h.623c.74-.01 1.478.025 2.213.108 1.871.203 3.703.672 5.44 1.392a16.122 16.122 0 0 1 6.367 4.76c.376.46.716.95 1.016 1.462.045.077.085.157.12.24-.005-.013-.022.009-.027.052zM11.053 80.317c.138-.102.29-.182.45-.24a8.35 8.35 0 0 1 1.794-.497c.436-.067.876-.11 1.317-.127h.544a12.29 12.29 0 0 1 2.988.479c1.204.354 2.381.794 3.522 1.315a70.037 70.037 0 0 1 3.898 1.926c.503.265 1.006.536 1.507.804.068.038.133.08.195.126a.079.079 0 0 1 .017.067.527.527 0 0 1-.096.122 5.74 5.74 0 0 1-.889.687 7.186 7.186 0 0 1-2.294.923 8.964 8.964 0 0 1-2.672.146 10.701 10.701 0 0 1-2.796-.648 17.174 17.174 0 0 1-2.836-1.347 21.44 21.44 0 0 1-4.406-3.413 3.124 3.124 0 0 1-.211-.228.286.286 0 0 1-.032-.095zM79.323 86.08a7.667 7.667 0 0 1-2.57-.395 6.471 6.471 0 0 1-2.226-1.24c-.369-.318-.373-.298.05-.526 1.584-.851 3.178-1.689 4.815-2.45a30.688 30.688 0 0 1 3.02-1.234 15.827 15.827 0 0 1 1.904-.536c.482-.098.97-.169 1.461-.21a9.934 9.934 0 0 1 1.866.014c.84.073 1.665.274 2.444.596.096.04.19.081.282.13.159.078.168.13.048.255a20.09 20.09 0 0 1-2.01 1.823 20.518 20.518 0 0 1-4.105 2.57c-.796.377-1.627.678-2.48.899a9.786 9.786 0 0 1-2.5.303zM32.937 94a.929.929 0 0 1-.937-.921v-4.45c0-.346.15-.676.412-.907l2.871-2.528a.784.784 0 0 1 1.033 0l2.88 2.528c.262.231.411.56.41.907v4.45a.91.91 0 0 1-.273.651.944.944 0 0 1-.663.27h-5.733zm30.4 0a.929.929 0 0 1-.938-.921v-4.45c0-.346.15-.676.413-.907l2.87-2.528a.784.784 0 0 1 1.033 0l2.873 2.528c.262.23.412.56.412.907v4.45c0 .508-.42.92-.937.92h-5.727zm-15.2 0a.929.929 0 0 1-.937-.921v-4.45c0-.346.15-.676.412-.907l2.87-2.528a.784.784 0 0 1 1.034 0l2.872 2.528c.262.23.412.56.412.907v4.45c0 .508-.42.92-.937.92h-5.726zm7.6 9a.929.929 0 0 1-.937-.92v-4.452c0-.346.15-.676.411-.907l2.874-2.528a.784.784 0 0 1 1.033 0l2.865 2.528c.262.231.412.561.412.907v4.449c0 .508-.42.92-.937.92l-5.72.003zm-9.474 0h-5.718a.946.946 0 0 1-.67-.267.912.912 0 0 1-.276-.656v-4.449c0-.346.15-.676.412-.907l2.873-2.528a.784.784 0 0 1 1.033 0l2.87 2.528c.263.231.413.561.413.907v4.449c0 .244-.098.48-.274.652a.946.946 0 0 1-.663.271zM86.329 16.666a6.642 6.642 0 0 1-.566 2.744 5.98 5.98 0 0 1-1.382 1.945c-.104.098-.214.186-.325.277a.094.094 0 0 1-.106 0 1.074 1.074 0 0 1-.09-.124c-.105-.18-.206-.359-.31-.538-.76-1.354-1.504-2.715-2.174-4.108a27.546 27.546 0 0 1-1.314-3.138c-.21-.625-.371-1.265-.482-1.914a9.508 9.508 0 0 1-.094-2.466c.064-.72.245-1.426.535-2.089a4.02 4.02 0 0 1 .385-.717c.053-.077.118-.084.195-.02l.058.05a20.423 20.423 0 0 1 3.982 4.785c.503.828.917 1.706 1.235 2.62.198.589.332 1.198.4 1.815.033.285.036.582.053.878zM22.111 10.224a10.281 10.281 0 0 1-.527 3.22 23.156 23.156 0 0 1-1.095 2.763 46.49 46.49 0 0 1-1.428 2.83 157.96 157.96 0 0 1-1.245 2.232c-.062.112-.132.22-.2.33a.096.096 0 0 1-.135.03c-.118-.1-.24-.195-.351-.303a6.102 6.102 0 0 1-1.721-3.05 6.962 6.962 0 0 1-.174-1.378 8.31 8.31 0 0 1 .518-3.11c.329-.892.746-1.75 1.245-2.562a19.873 19.873 0 0 1 2.857-3.648c.328-.33.672-.643 1.01-.957.045-.043.1-.078.15-.12a.092.092 0 0 1 .107.015c.04.05.078.102.113.156a5.8 5.8 0 0 1 .621 1.492 7.37 7.37 0 0 1 .255 2.06zM87.26 21.484c-.05-1.088.077-2.177.376-3.225a8.137 8.137 0 0 1 1.204-2.53c.185-.262.398-.502.635-.718a.099.099 0 0 1 .164.017l.046.062a19.386 19.386 0 0 1 2.646 5.643c.189.67.326 1.352.41 2.043.09.704.098 1.416.02 2.122a7.201 7.201 0 0 1-1.514 3.75 6.427 6.427 0 0 1-1.856 1.572c-.067.036-.137.067-.21.1a.106.106 0 0 1-.13-.047 4.625 4.625 0 0 1-.098-.292 66.071 66.071 0 0 1-1.144-4.495 29.765 29.765 0 0 1-.394-2.244 25.904 25.904 0 0 1-.155-1.758zM19.41 77.09c-.058.038-.118.086-.183.126a6.56 6.56 0 0 1-1.835.718 7.336 7.336 0 0 1-2.47.146 8.966 8.966 0 0 1-3.043-.876 12.677 12.677 0 0 1-2.35-1.497 19.72 19.72 0 0 1-3.787-4.019c-.308-.43-.597-.873-.867-1.327a.238.238 0 0 1-.043-.192c.196-.093.407-.15.624-.167a8.34 8.34 0 0 1 2.166-.074c1.086.096 2.149.363 3.15.791.58.253 1.142.542 1.685.866a26.576 26.576 0 0 1 2.75 1.888 73.435 73.435 0 0 1 3.37 2.8l.722.644a.24.24 0 0 1 .11.173zM14.289 21.474c-.034.57-.082 1.225-.173 1.876a41.106 41.106 0 0 1-1.007 4.76c-.168.637-.346 1.268-.525 1.902a1.81 1.81 0 0 1-.11.287.072.072 0 0 1-.065.026.534.534 0 0 1-.147-.05 6.143 6.143 0 0 1-1.38-.995 6.569 6.569 0 0 1-1.7-2.648 8.1 8.1 0 0 1-.426-3.234c.102-1.325.385-2.63.843-3.878a19.365 19.365 0 0 1 2.126-4.244c.063-.098.132-.191.2-.284a.082.082 0 0 1 .113-.017c.04.03.08.063.118.098.22.22.419.461.595.718.578.825.999 1.748 1.242 2.724.244.967.344 1.964.296 2.96zM96.727 70.17c0 .04-.004.08-.014.119a4.109 4.109 0 0 1-.154.268 20.167 20.167 0 0 1-4.093 4.784 14.122 14.122 0 0 1-2.35 1.639 9.64 9.64 0 0 1-2.913 1.03c-.69.122-1.394.151-2.093.087a6.69 6.69 0 0 1-2.725-.838c-.077-.043-.152-.095-.226-.145a.062.062 0 0 1 0-.099c.046-.047.089-.093.137-.136 1.418-1.265 2.855-2.507 4.372-3.653a25.048 25.048 0 0 1 2.441-1.65c.478-.285.971-.541 1.479-.768.959-.426 1.976-.708 3.019-.837.618-.071 1.24-.085 1.86-.041.337.02.67.072.998.153.091.02.173.055.262.086zM11.292 69.133a7.673 7.673 0 0 1-3.003-.662 9.095 9.095 0 0 1-2.407-1.553 13.61 13.61 0 0 1-1.82-2.007 19.62 19.62 0 0 1-2.858-5.507c-.027-.071-.046-.148-.065-.222a.105.105 0 0 1 .098-.134.848.848 0 0 1 .155-.02c.195 0 .39 0 .582.013 1.65.127 3.24.678 4.61 1.6.479.314.933.662 1.361 1.04a21.835 21.835 0 0 1 2.01 2.044 37.947 37.947 0 0 1 1.926 2.392c.518.694 1.021 1.397 1.532 2.098.074.105.147.21.219.318.072.108.074.182-.063.24-.137.057-.27.097-.407.133a7.373 7.373 0 0 1-1.87.227zM100.423 59.134c-.022.08-.041.168-.07.254a19.493 19.493 0 0 1-3.13 5.844c-.6.778-1.293 1.482-2.063 2.095a8.538 8.538 0 0 1-3.027 1.536 7.051 7.051 0 0 1-3.999-.05c-.074-.022-.146-.05-.219-.08a.096.096 0 0 1-.053-.126c.039-.067.08-.134.123-.196 1.009-1.435 2.049-2.854 3.178-4.2a23.065 23.065 0 0 1 2.444-2.544c.551-.49 1.148-.927 1.781-1.306a9.825 9.825 0 0 1 3.03-1.17c.47-.096.947-.151 1.427-.165.142 0 .284 0 .426.017a.166.166 0 0 1 .152.091zM9.662 36.71c0 .957-.049 1.914-.104 2.859a1.622 1.622 0 0 1-.024.189.09.09 0 0 1-.091.052c-.126-.036-.241-.064-.374-.105a6.724 6.724 0 0 1-3.29-2.42 7.932 7.932 0 0 1-1.342-2.936 10.762 10.762 0 0 1-.257-1.756 13.394 13.394 0 0 1-.037-1.39c.026-.72.09-1.439.193-2.153.182-1.22.477-2.421.881-3.588.05-.146.111-.29.169-.433a.109.109 0 0 1 .135-.04c.098.057.202.114.296.181.41.294.79.63 1.129 1.003a9.224 9.224 0 0 1 1.989 3.463c.17.541.301 1.094.392 1.653.2 1.186.309 2.386.323 3.589l.012 1.832zM97.416 31.533c0 .812-.073 1.622-.217 2.421a7.908 7.908 0 0 1-1.806 3.799 6.584 6.584 0 0 1-3.156 2.026c-.036.012-.075.02-.113.029a.094.094 0 0 1-.116-.07.951.951 0 0 1-.017-.114 57.117 57.117 0 0 1-.065-5.524c.038-1.082.162-2.16.371-3.222a10.185 10.185 0 0 1 1.175-3.174 8.453 8.453 0 0 1 1.938-2.3c.187-.16.39-.3.604-.42a.116.116 0 0 1 .162.055c.03.071.06.143.086.215.38 1.055.67 2.14.865 3.244.084.478.156.957.202 1.454.048.526.089 1.053.087 1.581zM1.445 35.978a.61.61 0 0 1 .149 0c.257.09.506.201.744.333a8.722 8.722 0 0 1 2.318 1.798 10.129 10.129 0 0 1 1.724 2.56c.399.852.735 1.731 1.006 2.631.311 1.01.559 2.036.783 3.07.193.894.361 1.791.52 2.693.04.172.063.348.07.524a.261.261 0 0 1-.195.048 4.813 4.813 0 0 1-.807-.113 7.077 7.077 0 0 1-3.984-2.392 8.52 8.52 0 0 1-1.445-2.37 13.36 13.36 0 0 1-.696-2.29 18.732 18.732 0 0 1-.337-2.37 20.916 20.916 0 0 1-.04-2.392c.018-.541.067-1.08.146-1.615a.634.634 0 0 1 .044-.115zM100.307 38.566c.014.64-.013 1.279-.082 1.914a15.763 15.763 0 0 1-.842 3.88 8.99 8.99 0 0 1-1.565 2.742 7.037 7.037 0 0 1-4.62 2.528 2.423 2.423 0 0 1-.35 0c-.016 0-.038-.031-.045-.053a.128.128 0 0 1 0-.074 49.922 49.922 0 0 1 1.3-5.961 19.26 19.26 0 0 1 1.086-2.875 9.992 9.992 0 0 1 2.027-2.87 8.457 8.457 0 0 1 2.027-1.486c.22-.113.448-.206.672-.304a.61.61 0 0 1 .113-.031c.052-.006.1.026.115.076.024.192.06.383.075.574.069.645.098 1.292.09 1.94zM9.118 59.5a7.062 7.062 0 0 1-3.58-.995 8.424 8.424 0 0 1-2.35-2.057c-.51-.651-.95-1.353-1.315-2.093a18.092 18.092 0 0 1-1.326-3.589 20.359 20.359 0 0 1-.525-2.846c0-.113 0-.24-.015-.345a.099.099 0 0 1 .109-.086c.202.036.409.065.609.115a8.724 8.724 0 0 1 2.862 1.34c.809.562 1.53 1.24 2.143 2.009a19.5 19.5 0 0 1 1.734 2.61A36.36 36.36 0 0 1 8.932 56.5c.368.823.722 1.656 1.074 2.483.046.108.08.218.115.328a.103.103 0 0 1-.072.117 1.32 1.32 0 0 1-.19.034l-.741.038zM92.316 59.495c-.161 0-.43-.024-.703-.043a.455.455 0 0 1-.147-.045.081.081 0 0 1-.038-.06c.016-.075.037-.149.065-.22.648-1.6 1.341-3.182 2.138-4.717a22.58 22.58 0 0 1 1.743-2.871 11.17 11.17 0 0 1 1.851-2.029 9.405 9.405 0 0 1 3.05-1.736c.333-.108.672-.195 1.014-.261a1.12 1.12 0 0 1 .155-.014.1.1 0 0 1 .105.088c.002.116-.003.232-.014.347a16.48 16.48 0 0 1-.24 1.526 19.87 19.87 0 0 1-1.067 3.667 14.63 14.63 0 0 1-1.33 2.572 9.108 9.108 0 0 1-1.783 2.029 7.523 7.523 0 0 1-2.933 1.538 6.644 6.644 0 0 1-1.866.23zM25.097 14.408c.11-.072.226-.153.346-.227A18.297 18.297 0 0 1 31 11.939c.91-.211 1.843-.317 2.778-.313 1.288 0 2.56.285 3.723.835a6.901 6.901 0 0 1 2.371 1.842c.154.189.291.394.43.595.051.075.018.146-.079.173-.616.157-1.227.32-1.844.478-.866.215-1.74.41-2.62.574-.596.113-1.203.213-1.8.292-.708.094-1.42.15-2.133.167-.505.018-1.011.002-1.515-.045a10.719 10.719 0 0 1-2.648-.603 9.384 9.384 0 0 1-1.974-.985c-.183-.122-.356-.261-.532-.393a.145.145 0 0 1-.06-.148zM76.46 14.43a.198.198 0 0 1-.08.131c-.175.13-.349.268-.532.39a9.682 9.682 0 0 1-2.407 1.131c-1.14.356-2.33.525-3.525.5a21.09 21.09 0 0 1-2.826-.239c-1.373-.206-2.726-.505-4.072-.835-.553-.134-1.102-.282-1.654-.425a.319.319 0 0 1-.103-.05.07.07 0 0 1-.024-.065.77.77 0 0 1 .087-.173 6.5 6.5 0 0 1 1.516-1.59 7.58 7.58 0 0 1 2.608-1.256 8.962 8.962 0 0 1 2.617-.316c.609.017 1.215.079 1.815.184a17.934 17.934 0 0 1 6.277 2.392c.111.059.213.133.303.22zM28.783 79.558a8.589 8.589 0 0 1-.776 3.562c-.103.25-.237.487-.4.704a.109.109 0 0 1-.108 0c-.021-.015-.043-.027-.065-.043l-.115-.101a15.687 15.687 0 0 1-3.11-3.782c-.44-.746-.79-1.54-1.046-2.366a6.919 6.919 0 0 1-.279-2.595 6.27 6.27 0 0 1 .696-2.392 6.885 6.885 0 0 1 1.635-2.046c.05-.04.103-.078.159-.11a.08.08 0 0 1 .07 0c.042.048.08.099.112.153.241.417.47.833.694 1.254a28.59 28.59 0 0 1 1.714 3.806c.249.677.453 1.37.612 2.074.136.618.206 1.25.207 1.882zM73.975 83.845a.634.634 0 0 1-.185-.24 7.135 7.135 0 0 1-.626-1.454 8.624 8.624 0 0 1-.385-3.052c.04-.669.15-1.332.33-1.978.266-.97.6-1.919.999-2.842a34.456 34.456 0 0 1 1.883-3.727c.032-.055.07-.106.113-.153a.073.073 0 0 1 .07 0c.046.022.089.05.127.084a6.553 6.553 0 0 1 2.167 6.729c-.186.711-.45 1.4-.787 2.055a14.851 14.851 0 0 1-2.649 3.655c-.286.296-.597.571-.895.856a.215.215 0 0 1-.162.067zM22.275 22.92a10.105 10.105 0 0 1-3.611-.647 9.066 9.066 0 0 1-.607-.26c-.2-.094-.217-.149-.07-.304l.027-.029a16.227 16.227 0 0 1 5.34-3.607c.696-.29 1.423-.504 2.166-.637.331-.065.667-.102 1.004-.11.323 0 .648-.016.963 0a7.456 7.456 0 0 1 4.702 1.97c.038.034.074.072.106.112a.093.093 0 0 1-.029.131l-.24.13a51.498 51.498 0 0 1-3.207 1.566c-.908.41-1.84.765-2.79 1.065-.655.202-1.323.362-1.999.478-.58.097-1.167.144-1.755.141zM79.45 22.914a11.283 11.283 0 0 1-3.065-.37 20.84 20.84 0 0 1-2.756-.928c-1.445-.589-2.83-1.275-4.202-2a.804.804 0 0 1-.158-.108.07.07 0 0 1-.017-.067.273.273 0 0 1 .067-.09c.279-.27.581-.516.903-.733a7.574 7.574 0 0 1 3.236-1.23 8.672 8.672 0 0 1 1.976-.035 8.92 8.92 0 0 1 2.117.478c1.125.394 2.196.925 3.19 1.581a16.411 16.411 0 0 1 2.708 2.192c.072.075.139.155.2.239a.067.067 0 0 1 0 .07.759.759 0 0 1-.156.107 7.422 7.422 0 0 1-1.045.416c-.594.186-1.202.321-1.818.404-.457.058-.939.063-1.18.074zM21.098 63.368c.07.062.115.147.125.24.156.595.322 1.196.467 1.794.193.813.345 1.635.457 2.466.15 1.02.208 2.05.176 3.081a8.925 8.925 0 0 1-.963 3.708 8.45 8.45 0 0 1-1.204 1.796 5.943 5.943 0 0 1-.296.307.9.9 0 0 1-.132.095 1.385 1.385 0 0 1-.128-.153 14.497 14.497 0 0 1-2.227-5.23 8.953 8.953 0 0 1-.185-1.994 6.956 6.956 0 0 1 3.679-6.002c.079-.038.156-.072.23-.108zM80.433 63.363c.07.03.117.044.163.067a6.922 6.922 0 0 1 3.477 4.125c.183.59.282 1.204.296 1.822a10.284 10.284 0 0 1-.424 3.086 14.82 14.82 0 0 1-1.95 4.189c-.048.072-.082.163-.18.189a.548.548 0 0 1-.212-.165 6.947 6.947 0 0 1-.691-.833 9.021 9.021 0 0 1-1.55-3.674 9.217 9.217 0 0 1-.143-1.457c-.006-.824.04-1.648.14-2.466.197-1.571.52-3.125.963-4.646.014-.05.031-.098.05-.146.017-.024.041-.043.06-.09zM12.816 30.514a.54.54 0 0 1 .019-.12c.021-.046.046-.092.074-.136a15.323 15.323 0 0 1 3.88-4.282c.72-.55 1.514-.999 2.359-1.332a8.417 8.417 0 0 1 1.723-.447 7.356 7.356 0 0 1 1.669-.058 7.451 7.451 0 0 1 3.407 1.089c.021.014.04.033.06.048a.071.071 0 0 1 .014.1c-.055.055-.108.11-.168.16a38.401 38.401 0 0 1-3.501 2.76c-.72.506-1.477.96-2.263 1.357-.796.41-1.64.72-2.514.924-.442.1-.89.172-1.34.215-.4.042-.802.06-1.204.055a9.83 9.83 0 0 1-1.852-.218l-.224-.06c-.04-.014-.089-.036-.14-.055zM88.727 30.512c-.21.095-.435.156-.665.18a9.672 9.672 0 0 1-2.051.152 10.49 10.49 0 0 1-3.703-.8c-.774-.33-1.52-.722-2.232-1.17a25.79 25.79 0 0 1-2.468-1.752 90.039 90.039 0 0 1-1.764-1.454c-.109-.091-.21-.192-.313-.29a.067.067 0 0 1 0-.1c.043-.029.084-.062.127-.089a7.657 7.657 0 0 1 4.623-1.04c.866.078 1.714.3 2.506.658a10.81 10.81 0 0 1 2.273 1.401 15.417 15.417 0 0 1 3.549 4.017c.06.084.14.155.118.287zM18.565 55.709a.714.714 0 0 1 .048.15c.017.165.031.333.036.5.029.814.039 1.624 0 2.435a22.009 22.009 0 0 1-.448 3.68 9.755 9.755 0 0 1-1.266 3.181 9.405 9.405 0 0 1-2.35 2.55c-.147.108-.303.199-.455.297a.1.1 0 0 1-.135-.034c-.026-.06-.055-.117-.077-.177a15.248 15.248 0 0 1-.633-2.349c-.207-1.09-.28-2.2-.217-3.308a8.38 8.38 0 0 1 .417-2.273 7.24 7.24 0 0 1 4.728-4.56c.114-.035.227-.064.352-.092zM82.977 55.71c.1.022.188.037.272.063a7.29 7.29 0 0 1 3.77 2.596 6.934 6.934 0 0 1 1.229 2.648 9.46 9.46 0 0 1 .24 1.873c.02.516.012 1.033-.026 1.548a14.806 14.806 0 0 1-.845 3.878.883.883 0 0 1-.09.17.08.08 0 0 1-.064.023.6.6 0 0 1-.14-.06 5.863 5.863 0 0 1-.751-.55 9.388 9.388 0 0 1-3.13-5.043 19.187 19.187 0 0 1-.414-2.392 28.466 28.466 0 0 1-.128-3.976c0-.205.022-.411.039-.617.009-.054.022-.108.038-.16zM21.536 32.21a.476.476 0 0 1-.031.106c-.049.076-.102.15-.155.225a36.174 36.174 0 0 1-2.294 2.87 19.037 19.037 0 0 1-2.136 2.084 10.74 10.74 0 0 1-2.207 1.435c-.949.453-1.961.759-3.003.907a9.9 9.9 0 0 1-1.355.09 1.06 1.06 0 0 1-.424-.045.065.065 0 0 1-.033-.055.952.952 0 0 1 .04-.187c.245-.747.553-1.473.92-2.17a14.176 14.176 0 0 1 1.95-2.87 9.811 9.811 0 0 1 1.565-1.435 7.524 7.524 0 0 1 5.516-1.388c.491.067.975.179 1.445.335.05.016.098.035.144.058.012.005.034.024.058.04zM82.715 31.698a7.537 7.537 0 0 1 4.77 1.694 10.426 10.426 0 0 1 1.653 1.675 15.108 15.108 0 0 1 2.437 4.456c.017.048.031.098.048.149.065.208.048.239-.185.239-.169 0-.337.014-.506 0a10.108 10.108 0 0 1-3.765-.847 10.661 10.661 0 0 1-2.555-1.598 18.078 18.078 0 0 1-1.844-1.768 35.166 35.166 0 0 1-2.622-3.256c-.043-.062-.084-.129-.125-.193a.079.079 0 0 1 .036-.096c.132-.05.262-.108.4-.148a7.525 7.525 0 0 1 2.258-.307zM91.204 57.438c0 .527-.03 1.053-.091 1.577a1.233 1.233 0 0 1-.065.258.07.07 0 0 1-.06.033.55.55 0 0 1-.152-.028 6.12 6.12 0 0 1-.848-.383 9.678 9.678 0 0 1-4.129-4.131 18.903 18.903 0 0 1-1.264-3.156 30.288 30.288 0 0 1-.84-3.571c0-.062-.014-.127-.02-.191a.111.111 0 0 1 .125-.115h.078a7.626 7.626 0 0 1 3.67 1.263c.948.64 1.73 1.496 2.277 2.497.416.773.727 1.598.924 2.452.167.69.28 1.391.337 2.098.039.438.058.876.058 1.397zM10.353 57.529a14.905 14.905 0 0 1 .467-3.849 9.67 9.67 0 0 1 .683-1.847 7.187 7.187 0 0 1 4.85-3.894 9.22 9.22 0 0 1 1.225-.204c.051-.003.103-.003.154 0a.1.1 0 0 1 .074.077.834.834 0 0 1 0 .156 25.898 25.898 0 0 1-1.528 5.537 14.28 14.28 0 0 1-.723 1.5 9.633 9.633 0 0 1-4.456 4.112c-.152.072-.31.127-.467.187-.087.031-.15 0-.169-.105a1.665 1.665 0 0 1-.03-.192c-.044-.55-.107-1.102-.08-1.478zM18.78 39.78c.003.029.003.058 0 .088a.788.788 0 0 1-.047.146 28.183 28.183 0 0 1-2.12 4.24c-.41.66-.86 1.291-1.349 1.893a9.876 9.876 0 0 1-5.056 3.292c-.26.074-.527.126-.794.182a.829.829 0 0 1-.241 0c-.02 0-.048-.032-.05-.05a.846.846 0 0 1 0-.192c.192-1.85.731-3.648 1.588-5.301a9.946 9.946 0 0 1 1.108-1.675 7.33 7.33 0 0 1 4.143-2.545 7.462 7.462 0 0 1 2.088-.167c.244.014.488.044.73.088zM83.943 39.679a7.459 7.459 0 0 1 6.07 3.076c.51.7.937 1.455 1.275 2.251a14.645 14.645 0 0 1 1.019 3.478c.043.268.082.536.118.804.01.08.016.16.017.24 0 .076-.046.13-.114.124a2.514 2.514 0 0 1-.27-.034 8.888 8.888 0 0 1-1.783-.529 9.881 9.881 0 0 1-3.963-2.92 19.908 19.908 0 0 1-1.94-2.89 29.731 29.731 0 0 1-1.537-3.208c-.029-.072-.05-.146-.074-.22 0-.026.029-.079.06-.084.37-.064.746-.094 1.122-.088z"/>
    </g>
</svg>
