<svg xmlns="http://www.w3.org/2000/svg" width="41" height="40" viewBox="0 0 41 40">
    <g fill="#FF7200" fill-rule="evenodd">
        <path d="M39.113 5.153c1.22.428 1.525 1.577 1.525 2.631 0 1.865-3.115 5.877-4.417 7.175H4.417C3.115 13.66 0 9.649 0 7.784 0 6.73.304 5.581 1.525 5.153l11.836-3.724c.152-.059.316-.116.488-.17C15.407.767 17.726 0 20.319 0c2.524 0 4.792.79 6.346 1.259.287.087.55.179.787.274l11.661 3.62zM11.683 8h2.738a.45.45 0 0 0 .447-.454V5.38a.59.59 0 0 0-.197-.44l-1.373-1.227a.37.37 0 0 0-.493 0l-1.373 1.233a.586.586 0 0 0-.198.44v2.166c0 .247.2.447.448.447zm14.535 0h2.74a.45.45 0 0 0 .445-.454V5.38a.59.59 0 0 0-.196-.44l-1.374-1.227a.37.37 0 0 0-.493 0l-1.373 1.233a.586.586 0 0 0-.198.44v2.166c0 .247.2.447.449.447zm-7.269 0h2.739a.45.45 0 0 0 .444-.454V5.387a.586.586 0 0 0-.198-.44l-1.37-1.233a.37.37 0 0 0-.494 0l-1.372 1.233a.59.59 0 0 0-.196.44v2.166c0 .246.2.446.447.447zm3.635 4.367l2.738-.007a.448.448 0 0 0 .447-.447v-2.16a.595.595 0 0 0-.196-.44l-1.374-1.226a.37.37 0 0 0-.493 0l-1.373 1.226a.595.595 0 0 0-.197.44v2.167c0 .246.2.446.448.447zm-4.53 0v-.007c.247 0 .448-.2.448-.447v-2.16a.59.59 0 0 0-.198-.44l-1.372-1.226a.37.37 0 0 0-.494 0l-1.372 1.226a.59.59 0 0 0-.198.44v2.167c0 .247.2.447.449.447h2.736zM36.213 17.071c-.027 3.079-7.132 5.572-15.893 5.572-8.705 0-15.77-2.46-15.892-5.512-.596 1.716-.9 3.52-.898 5.336 0 5.977 3.2 11.5 8.394 14.489a16.84 16.84 0 0 0 16.789 0 16.72 16.72 0 0 0 8.394-14.489 17.13 17.13 0 0 0-.86-5.396h-.034z"/>
    </g>
</svg>
