<svg xmlns="http://www.w3.org/2000/svg" width="121" height="36" viewBox="0 0 121 36">
    <defs>
        <linearGradient id="a" x1="91.488%" x2="-38.352%" y1="4.948%" y2="71.907%">
            <stop offset="0%" stop-color="#00A0FF"/>
            <stop offset="1%" stop-color="#00A1FF"/>
            <stop offset="26%" stop-color="#00BEFF"/>
            <stop offset="51%" stop-color="#00D2FF"/>
            <stop offset="76%" stop-color="#00DFFF"/>
            <stop offset="100%" stop-color="#00E3FF"/>
        </linearGradient>
        <linearGradient id="b" x1="107.685%" x2="-130.64%" y1="50%" y2="50%">
            <stop offset="0%" stop-color="#FFE000"/>
            <stop offset="41%" stop-color="#FFBD00"/>
            <stop offset="78%" stop-color="#FFA500"/>
            <stop offset="100%" stop-color="#FF9C00"/>
        </linearGradient>
        <linearGradient id="c" x1="86.219%" x2="-50.15%" y1="17.877%" y2="194.703%">
            <stop offset="0%" stop-color="#FF3A44"/>
            <stop offset="100%" stop-color="#C31162"/>
        </linearGradient>
        <linearGradient id="d" x1="-18.754%" x2="42.121%" y1="-54.052%" y2="24.917%">
            <stop offset="0%" stop-color="#32A071"/>
            <stop offset="7%" stop-color="#2DA771"/>
            <stop offset="48%" stop-color="#15CF74"/>
            <stop offset="80%" stop-color="#06E775"/>
            <stop offset="100%" stop-color="#00F076"/>
        </linearGradient>
    </defs>
    <g fill="none" fill-rule="nonzero">
        <rect width="121" height="36" fill="#000" rx="4.5"/>
        <path fill="#FFF" d="M61.074 19.575a3.817 3.817 0 0 0-3.792 3.837 3.817 3.817 0 0 0 3.816 3.813A3.817 3.817 0 0 0 64.9 23.4a3.78 3.78 0 0 0-1.106-2.727 3.747 3.747 0 0 0-2.721-1.098zm0 6.147a2.311 2.311 0 0 1-2.248-1.315 2.33 2.33 0 0 1 .393-2.583 2.306 2.306 0 0 1 2.537-.58 2.322 2.322 0 0 1 1.469 2.156 2.22 2.22 0 0 1-.588 1.617 2.2 2.2 0 0 1-1.563.705zm-8.345-6.147a3.817 3.817 0 0 0-3.8 3.831 3.817 3.817 0 0 0 3.812 3.819 3.817 3.817 0 0 0 3.806-3.825 3.78 3.78 0 0 0-1.105-2.727 3.747 3.747 0 0 0-2.722-1.098h.01zm0 6.147a2.31 2.31 0 0 1-2.254-1.309 2.33 2.33 0 0 1 .387-2.585 2.306 2.306 0 0 1 2.538-.585A2.322 2.322 0 0 1 54.87 23.4a2.22 2.22 0 0 1-.588 1.617 2.2 2.2 0 0 1-1.563.705h.01zm-9.94-4.968v1.62h3.872a3.4 3.4 0 0 1-.896 2.043 3.953 3.953 0 0 1-2.985 1.188c-2.376 0-4.302-1.934-4.302-4.32s1.926-4.32 4.302-4.32a4.114 4.114 0 0 1 2.931 1.161l1.138-1.143a5.626 5.626 0 0 0-4.06-1.683 5.919 5.919 0 0 0-5.322 2.903 5.97 5.97 0 0 0 0 6.083 5.919 5.919 0 0 0 5.322 2.903 5.366 5.366 0 0 0 4.132-1.665 5.413 5.413 0 0 0 1.398-3.798 5.304 5.304 0 0 0-.09-1.017l-5.44.045zm40.611 1.26a3.587 3.587 0 0 0-3.262-2.439 3.578 3.578 0 0 0-2.618 1.133c-.68.724-1.03 1.699-.967 2.692a3.752 3.752 0 0 0 1.082 2.72 3.72 3.72 0 0 0 2.7 1.105 3.787 3.787 0 0 0 3.173-1.692l-1.3-.9a2.176 2.176 0 0 1-1.873 1.062 1.935 1.935 0 0 1-1.846-1.161l5.1-2.115-.189-.405zm-5.198 1.278a2.102 2.102 0 0 1 .528-1.536c.374-.42.901-.67 1.462-.696.59-.04 1.148.28 1.416.81l-3.406 1.422zM74.06 27h1.676V15.75h-1.676V27zm-2.743-6.57h-.062a2.684 2.684 0 0 0-2.008-.9 3.827 3.827 0 0 0-3.633 3.83 3.827 3.827 0 0 0 3.633 3.829 2.595 2.595 0 0 0 2.008-.9h.053v.549c0 1.467-.78 2.25-2.034 2.25a2.107 2.107 0 0 1-1.918-1.359l-1.461.612a3.63 3.63 0 0 0 3.379 2.259c1.963 0 3.585-1.161 3.585-3.987V19.8h-1.542v.63zM69.4 25.722a2.327 2.327 0 0 1-2.117-2.322c0-1.208.919-2.216 2.117-2.322.58.03 1.122.293 1.505.73.383.438.574 1.011.53 1.592a2.148 2.148 0 0 1-.527 1.6 2.13 2.13 0 0 1-1.517.722h.01zm21.852-9.972h-4.007V27h1.677v-4.266h2.339a3.483 3.483 0 0 0 3.227-1.67c.68-1.119.68-2.525 0-3.644a3.483 3.483 0 0 0-3.227-1.67h-.01zm0 5.4h-2.34v-3.834h2.376c1.062 0 1.922.864 1.922 1.93 0 1.067-.86 1.931-1.922 1.931l-.036-.027zm10.334-1.62a3.135 3.135 0 0 0-2.984 1.719l1.487.621c.3-.555.898-.88 1.524-.828.43-.05.862.075 1.199.347.337.273.55.67.594 1.102v.117a3.69 3.69 0 0 0-1.748-.432c-1.604 0-3.227.9-3.227 2.529.032.702.346 1.36.869 1.827.523.466 1.212.7 1.91.648a2.354 2.354 0 0 0 2.15-1.08h.055v.9h1.613v-4.329c0-1.971-1.488-3.114-3.397-3.114l-.045-.027zm-.206 6.165c-.547 0-1.309-.279-1.309-.954 0-.9.95-1.197 1.793-1.197a2.966 2.966 0 0 1 1.524.378 2.029 2.029 0 0 1-1.963 1.8l-.045-.027zm9.528-5.895l-1.918 4.878h-.054l-1.99-4.878h-1.793l2.985 6.822-1.703 3.789h1.748l4.589-10.611h-1.864zM95.84 27h1.676V15.75h-1.676V27z"/>
        <path fill="url(#a)" d="M9.357 6.786c-.292.352-.44.803-.412 1.26v19.908c-.027.457.12.908.412 1.26l.063.063 11.105-11.142v-.261L9.42 6.723l-.063.063z"/>
        <path fill="url(#b)" d="M24.2 21.852l-3.675-3.717v-.261l3.675-3.726.08.045 4.401 2.511c1.255.711 1.255 1.881 0 2.601L24.3 21.807l-.099.045z"/>
        <path fill="url(#c)" d="M24.308 21.798L20.525 18 9.357 29.214c.528.466 1.311.488 1.865.054l13.095-7.47"/>
        <path fill="url(#d)" d="M24.308 14.202l-13.095-7.47a1.456 1.456 0 0 0-1.865.054L20.525 18l3.783-3.798z"/>
        <path fill="#000" d="M24.2 21.717l-12.987 7.425a1.492 1.492 0 0 1-1.793 0l-.063.063.063.063c.53.402 1.262.402 1.793 0l13.095-7.47-.108-.081z" opacity=".2"/>
        <path fill="#000" d="M9.357 29.088a1.805 1.805 0 0 1-.412-1.26v.135c-.027.457.12.908.412 1.26l.063-.063-.063-.072zM28.681 19.17L24.2 21.717l.08.081 4.401-2.502c.509-.24.85-.734.897-1.296-.102.508-.433.94-.897 1.17z" opacity=".12"/>
        <path fill="#FFF" d="M11.213 6.858L28.68 16.83c.464.23.795.662.897 1.17a1.575 1.575 0 0 0-.897-1.296L11.213 6.732c-1.255-.711-2.277-.117-2.277 1.323v.135c.027-1.449 1.03-2.043 2.277-1.332z" opacity=".25"/>
        <path fill="#FFF" d="M37.743 12.843h-.663v-1.8h.564a2.58 2.58 0 0 0 .682-2.07V6.3h3.585v4.734h.6v1.8h-.663V11.7h-4.105v1.143zM38.989 9a3.612 3.612 0 0 1-.511 2.07h2.689V6.966h-2.178V9zM47.871 10.998a2.788 2.788 0 0 1-3.944 0 2.925 2.925 0 0 1 0-4.005 2.773 2.773 0 0 1 3.944 0 2.916 2.916 0 0 1 0 4.005zm-3.433-.45a2.064 2.064 0 0 0 2.922 0 2.311 2.311 0 0 0 0-3.096 2.064 2.064 0 0 0-2.922 0 2.311 2.311 0 0 0 0 3.096zM52.147 11.817a2.737 2.737 0 0 1-1.997-.81A2.76 2.76 0 0 1 49.35 9a2.76 2.76 0 0 1 .8-2.008 2.737 2.737 0 0 1 1.997-.809 2.478 2.478 0 0 1 1.971.9l-.484.468a1.79 1.79 0 0 0-1.496-.684 2.03 2.03 0 0 0-1.488.594 2.32 2.32 0 0 0 0 3.123 2.03 2.03 0 0 0 1.488.594 2.121 2.121 0 0 0 1.64-.801l.484.486c-.244.297-.55.537-.897.702-.382.174-.799.26-1.218.252zM57.076 11.7h-.69V6.966H54.88V6.3h3.693v.666h-1.497zM63.323 6.3l-2.034 4.554a1.354 1.354 0 0 1-1.237.963 1.375 1.375 0 0 1-.538-.117l.18-.639a.724.724 0 0 0 .358.099.634.634 0 0 0 .376-.09.846.846 0 0 0 .242-.342l.197-.432-1.792-3.987h.816l1.326 3.096 1.29-3.105h.816zM64.103 11.7V6.3h3.89v5.4h-.69V6.966h-2.51V11.7zM69.221 11.7V6.3h.69v2.313H72.6V6.3h.69v5.4h-.69V9.261h-2.689V11.7zM78.928 10.998a2.788 2.788 0 0 1-3.944 0 2.925 2.925 0 0 1 0-4.005 2.773 2.773 0 0 1 3.944 0 2.916 2.916 0 0 1 0 4.005zm-3.433-.45a2.064 2.064 0 0 0 2.922 0 2.311 2.311 0 0 0 0-3.096 2.064 2.064 0 0 0-2.922 0 2.311 2.311 0 0 0 0 3.096zM82.54 11.7V6.3h1.945c.404-.008.795.14 1.093.414.304.264.474.65.466 1.053.005.24-.064.475-.197.675a1.247 1.247 0 0 1-.529.441c.26.086.488.25.655.468.172.22.264.494.26.774.009.42-.168.822-.484 1.098-.312.29-.723.447-1.148.441l-2.061.036zm.69-3.087h1.255a.805.805 0 0 0 .627-.261.802.802 0 0 0 .036-1.152.77.77 0 0 0-.6-.261h-1.282l-.036 1.674zm0 2.421h1.39a.823.823 0 0 0 .645-.279.902.902 0 0 0 .25-.612c0-.497-.4-.9-.896-.9h-1.362l-.027 1.791z"/>
    </g>
</svg>
