<svg xmlns="http://www.w3.org/2000/svg" width="41" height="40" viewBox="0 0 41 40">
    <g fill="#FFF" fill-rule="evenodd" opacity=".5">
        <path d="M.6 20.328C.6 9.463 9.476.656 20.426.656c10.95 0 19.826 8.807 19.826 19.672C40.252 31.192 31.376 40 20.426 40 9.476 40 .6 31.192.6 20.328zM20.427 9.836c-2.872 0-3.232.013-4.36.063-1.126.052-1.894.228-2.566.488a5.182 5.182 0 0 0-1.873 1.21 5.147 5.147 0 0 0-1.22 1.858c-.263.667-.441 1.43-.492 2.547-.05 1.119-.064 1.477-.064 4.326 0 2.85.013 3.206.064 4.325.052 1.117.23 1.88.491 2.547.27.69.632 1.275 1.22 1.858a5.182 5.182 0 0 0 1.872 1.211c.673.26 1.442.436 2.567.488 1.128.05 1.488.063 4.36.063 2.872 0 3.231-.013 4.359-.063 1.126-.052 1.895-.228 2.568-.488a5.178 5.178 0 0 0 1.871-1.21 5.147 5.147 0 0 0 1.22-1.86c.26-.667.44-1.43.492-2.546.05-1.119.064-1.476.064-4.325 0-2.85-.013-3.207-.064-4.326-.053-1.117-.231-1.88-.491-2.547a5.146 5.146 0 0 0-1.22-1.858 5.172 5.172 0 0 0-1.873-1.21c-.674-.26-1.443-.436-2.569-.488-1.128-.05-1.487-.063-4.36-.063h.004z"/>
        <path d="M19.479 11.727h.948c2.823 0 3.158.01 4.273.06 1.03.047 1.59.218 1.963.361.494.19.845.418 1.215.785.37.367.6.717.792 1.207.144.37.317.924.364 1.947.05 1.106.061 1.439.061 4.239s-.01 3.132-.061 4.238c-.047 1.023-.22 1.578-.364 1.947-.192.49-.422.839-.792 1.206-.37.367-.721.594-1.215.784-.372.145-.932.315-1.963.362-1.115.05-1.45.061-4.273.061-2.823 0-3.158-.01-4.273-.061-1.03-.047-1.59-.218-1.963-.362a3.278 3.278 0 0 1-1.216-.785 3.25 3.25 0 0 1-.791-1.205c-.145-.37-.318-.925-.365-1.948-.05-1.106-.06-1.438-.06-4.24 0-2.802.01-3.132.06-4.238.048-1.023.22-1.579.365-1.948.191-.49.42-.84.79-1.207.37-.367.723-.594 1.217-.785.373-.144.932-.315 1.963-.362.976-.044 1.354-.057 3.325-.059v.003zm6.592 1.742c-.7 0-1.268.563-1.268 1.258 0 .696.568 1.26 1.268 1.26.7 0 1.27-.564 1.27-1.26 0-.695-.57-1.259-1.27-1.259zm-5.644 1.47c-2.999 0-5.43 2.413-5.43 5.389 0 2.976 2.431 5.387 5.43 5.387 2.999 0 5.43-2.411 5.43-5.387 0-2.976-2.431-5.388-5.43-5.388z"/>
        <path d="M20.427 16.83c1.947 0 3.525 1.566 3.525 3.498 0 1.931-1.578 3.497-3.525 3.497-1.947 0-3.525-1.566-3.525-3.497 0-1.932 1.578-3.497 3.525-3.497z"/>
    </g>
</svg>
