<svg xmlns="http://www.w3.org/2000/svg" width="250" height="30" viewBox="0 0 250 30">
    <g fill="none" fill-rule="evenodd">
        <path fill="#FF7200" d="M1.54 14.734c-.85 0-1.54-.674-1.54-1.506V5.94c0-.566.247-1.106.678-1.484L5.399.318a1.294 1.294 0 0 1 1.7 0l4.735 4.139c.431.378.677.918.676 1.484v7.287c0 .4-.162.783-.45 1.066-.29.282-.682.441-1.091.44H1.54zm49.996 0c-.851 0-1.54-.674-1.54-1.506V5.94c0-.566.246-1.106.677-1.484L55.394.318a1.294 1.294 0 0 1 1.7 0l4.723 4.139c.431.378.678.918.678 1.484v7.287c0 .832-.69 1.506-1.54 1.506h-9.419zm-24.998 0c-.85 0-1.54-.674-1.54-1.506V5.94c0-.566.246-1.106.678-1.484l4.72-4.139a1.294 1.294 0 0 1 1.7 0l4.724 4.139c.43.378.677.918.678 1.484v7.287c0 .832-.69 1.506-1.541 1.506h-9.419zm12.5 14.737c-.85 0-1.54-.674-1.54-1.506v-7.29c-.001-.565.244-1.105.675-1.484l4.726-4.138a1.294 1.294 0 0 1 1.7 0l4.71 4.138c.432.378.678.918.679 1.485v7.284c0 .832-.69 1.506-1.541 1.506l-9.409.005zm-15.581 0h-9.404a1.56 1.56 0 0 1-1.1-.438 1.49 1.49 0 0 1-.455-1.073v-7.284c0-.567.246-1.107.678-1.485l4.723-4.138a1.294 1.294 0 0 1 1.7 0l4.72 4.138c.432.378.678.918.679 1.485v7.284c0 .4-.16.785-.45 1.068-.29.284-.682.443-1.091.443z"/>
        <path fill="#FF7200" fill-rule="nonzero" d="M139.507 25.369h-2.128V10.808h4.367V18.8l.034-.032 7.73-7.954h2.958v14.561h-4.376v-8.002l-7.764 7.995h-.821zm-34.704 0h-2.13V10.808h4.366V18.8l7.754-7.988h2.958v14.56h-4.366v-8.002l-7.764 7.998h-.818zm29.862-10.76h-5.025v10.76h-4.477v-10.76h-5.027v-3.801h14.529v3.801zM99.943 23.11a12.608 12.608 0 0 1-8.525 3.242c-6.243 0-11.312-5.006-11.312-11.174C80.106 9.01 85.176 4 91.418 4a12.658 12.658 0 0 1 8.042 2.823l-2.813 3.396a7.386 7.386 0 0 0-5.074-1.887c-3.698 0-6.706 3.068-6.706 6.845 0 3.777 3.005 6.843 6.706 6.843 2.01.039 3.946-.74 5.345-2.15l3.025 3.24z"/>
        <path fill="#FFF" fill-rule="nonzero" d="M201.006 18.09c.246 2.35 1.612 4.266 4.438 4.266 1.908 0 4.255-1.22 4.255-4.23 0-2.297-1.575-3.876-3.888-3.876a5.48 5.48 0 0 0-.74.048c-1.01.164-3.185.834-4.065 3.792zm-15.237 4.302c-2.273 0-4.33-1.972-4.33-4.233 0-2.26 2.057-4.302 4.33-4.302 2.532 0 4.55 2.008 4.55 4.302 0 2.295-2.018 4.233-4.55 4.233zm-11.003 2.977h-4.221v-7.11l-4.438 5.521h-1.972l-4.414-5.522v7.11h-4.22v-14.56h2.958l6.677 8.034 6.679-8.034h2.958l-.007 14.56zm43.95 0h-2.13V10.808h4.368V18.8l7.761-7.995h2.96v14.56H227.3v-7.995l-7.763 7.998h-.822zm31.17 0h-4.22V14.544h-4.295v5.348c0 4.51-3.173 6.243-6.886 5.477V22.08c1.807 0 2.42-.362 2.42-2.651v-8.622h12.987l-.005 14.56zm-42.539-14.79c4.063.42 6.46 3.08 6.46 7.547-.146 4.553-2.934 8.212-8.218 8.212-5.87 0-8.732-3.48-8.732-10.15 0-5.274 2.053-9.003 6.679-10.832 2.009-.776 4.21-1.258 6.277-2.331l2.019 3.119c-2.512 2.336-9.35 1.57-11.095 6.821a7.27 7.27 0 0 1 3.997-2.275c.47-.11.951-.167 1.435-.169h.051c.377-.014.754.005 1.127.058zm-21.57-.776c-4.72.016-8.548 3.742-8.583 8.356 0 4.52 3.888 8.285 8.583 8.285 4.77 0 8.658-3.765 8.658-8.285-.007-4.589-3.895-8.356-8.666-8.356h.008z"/>
    </g>
</svg>
