<svg xmlns="http://www.w3.org/2000/svg" width="250" height="31" viewBox="0 0 250 31">
    <g fill="none" fill-rule="evenodd">
        <path fill="#FF7200" d="M1.54 15.087c-.85 0-1.54-.69-1.54-1.542V6.084c0-.58.247-1.133.678-1.52L5.399.325a1.271 1.271 0 0 1 1.7 0l4.735 4.237c.431.388.677.94.676 1.52v7.462a1.54 1.54 0 0 1-1.541 1.542H1.54zm49.996 0c-.851 0-1.54-.69-1.54-1.542V6.084c0-.58.246-1.133.677-1.52L55.394.325a1.271 1.271 0 0 1 1.7 0l4.723 4.237c.431.388.678.94.678 1.52v7.462c0 .852-.69 1.542-1.54 1.542h-9.419zm-24.998 0c-.85 0-1.54-.69-1.54-1.542V6.084c0-.58.246-1.133.678-1.52l4.72-4.238a1.271 1.271 0 0 1 1.7 0l4.724 4.237c.43.388.677.94.678 1.52v7.462c0 .852-.69 1.542-1.541 1.542h-9.419zm12.5 15.09c-.85 0-1.54-.69-1.54-1.543v-7.463c-.001-.58.244-1.133.675-1.52l4.726-4.238a1.271 1.271 0 0 1 1.7 0l4.71 4.238c.432.387.678.94.679 1.52v7.459c0 .851-.69 1.542-1.541 1.542l-9.409.005zm-15.581 0h-9.404a1.54 1.54 0 0 1-1.555-1.547V21.17c0-.58.246-1.133.678-1.52l4.723-4.238a1.271 1.271 0 0 1 1.7 0l4.72 4.238c.432.387.678.94.679 1.52v7.459a1.543 1.543 0 0 1-1.541 1.547z"/>
        <path fill="#FF7200" fill-rule="nonzero" d="M139.507 25.976h-2.128v-14.91h4.367v8.185l.034-.032 7.73-8.145h2.958v14.91h-4.376V17.79l-7.764 8.186h-.821zm-34.704 0h-2.13v-14.91h4.366v8.185l7.754-8.18h2.958v14.91h-4.366v-8.194l-7.764 8.19h-.818zm29.862-11.017h-5.025v11.017h-4.477V14.96h-5.027v-3.892h14.529v3.892zm-34.722 8.705a12.441 12.441 0 0 1-8.525 3.32c-6.243 0-11.312-5.127-11.312-11.443 0-6.315 5.069-11.444 11.312-11.444a12.475 12.475 0 0 1 8.042 2.89l-2.813 3.478a7.286 7.286 0 0 0-5.074-1.933c-3.698 0-6.706 3.142-6.706 7.01 0 3.867 3.005 7.006 6.706 7.006a7.242 7.242 0 0 0 5.345-2.201l3.025 3.317z"/>
        <path fill="#000" fill-rule="nonzero" d="M201.006 18.523c.246 2.406 1.612 4.368 4.438 4.368 1.908 0 4.255-1.249 4.255-4.331 0-2.352-1.575-3.969-3.888-3.969-.247 0-.494.016-.74.05-1.01.167-3.185.853-4.065 3.882zm-15.237 4.405c-2.273 0-4.33-2.019-4.33-4.334 0-2.315 2.057-4.405 4.33-4.405 2.532 0 4.549 2.056 4.549 4.405 0 2.35-2.017 4.334-4.549 4.334zm-11.003 3.048h-4.221v-7.28l-4.438 5.654h-1.972l-4.414-5.654v7.28h-4.22v-14.91h2.958l6.677 8.227 6.679-8.226h2.958l-.007 14.91zm43.95 0h-2.13v-14.91h4.368v8.185l7.761-8.187h2.96v14.91H227.3v-8.187l-7.764 8.19h-.82zm31.17 0h-4.22V14.892h-4.295v5.477c0 4.618-3.173 6.392-6.886 5.607V22.61c1.807 0 2.42-.37 2.42-2.715v-8.828h12.987l-.005 14.91zm-42.539-15.144c4.063.43 6.46 3.154 6.46 7.728-.146 4.662-2.934 8.408-8.218 8.408-5.87 0-8.732-3.563-8.732-10.393 0-5.4 2.053-9.218 6.679-11.091 2.009-.795 4.21-1.288 6.277-2.387l2.019 3.194c-2.512 2.392-9.35 1.607-11.095 6.985a7.232 7.232 0 0 1 3.997-2.33c.47-.113.951-.17 1.435-.173h.051c.377-.014.754.006 1.127.06zm-21.57-.794c-4.72.016-8.548 3.832-8.583 8.556 0 4.628 3.888 8.483 8.583 8.483 4.77 0 8.658-3.855 8.658-8.483-.007-4.699-3.895-8.556-8.666-8.556h.008z"/>
    </g>
</svg>
