<svg xmlns="http://www.w3.org/2000/svg" width="153" height="152" viewBox="0 0 153 152">
    <g fill="#FF7200" fill-rule="evenodd">
        <path d="M102.79 2.512a7.786 7.786 0 0 1 .275-2.153c.022-.072.047-.147.072-.22a.173.173 0 0 1 .228-.11l.419.208a35.864 35.864 0 0 1 4.557 2.81 31.811 31.811 0 0 1 3.843 3.283 22.94 22.94 0 0 1 2.434 2.87 13.602 13.602 0 0 1 1.805 3.553 9.578 9.578 0 0 1 .528 3.416 8.807 8.807 0 0 1-1.578 4.78c-.07.092-.147.178-.232.257h-.108a.228.228 0 0 1-.097-.057c-.098-.093-.195-.19-.29-.287-1.74-1.794-3.463-3.588-5.12-5.476a52.47 52.47 0 0 1-3.092-3.774 24.951 24.951 0 0 1-1.784-2.713 15.73 15.73 0 0 1-1.513-3.753 11.028 11.028 0 0 1-.346-2.634zM49.115 0a.828.828 0 0 1 .112.183c.128.424.211.861.249 1.303a10.794 10.794 0 0 1-.29 3.677 15.914 15.914 0 0 1-1.404 3.55 23.145 23.145 0 0 1-1.618 2.543c-.997 1.382-2.084 2.695-3.214 3.972-1.719 1.949-3.507 3.83-5.316 5.691-.094.097-.195.19-.292.28a.163.163 0 0 1-.213 0c-.073-.09-.149-.176-.214-.272a8.308 8.308 0 0 1-1.022-2.01 8.825 8.825 0 0 1-.502-3.663 10.61 10.61 0 0 1 .723-3.093c.378-.954.863-1.863 1.444-2.71a21.65 21.65 0 0 1 2.528-3.039 32.964 32.964 0 0 1 5.641-4.553A34.611 34.611 0 0 1 48.645.165a.888.888 0 0 1 .47-.165zM44.182 16.567c0-.058.008-.117.025-.172a6.99 6.99 0 0 1 .253-.456 19.463 19.463 0 0 1 2.416-3.186 24.517 24.517 0 0 1 10.137-6.6 29.912 29.912 0 0 1 5.305-1.309 27.773 27.773 0 0 1 5.345-.323c.097.004.194.017.289.04.021 0 .05.071.04.093a2.088 2.088 0 0 1-.167.305A22.54 22.54 0 0 1 66.352 6.9a30.084 30.084 0 0 1-6.298 5.659 24.745 24.745 0 0 1-8.512 3.642c-.835.184-1.679.323-2.528.416a24.69 24.69 0 0 1-3.785.097 6.605 6.605 0 0 1-1.047-.147zM108.403 16.57a4.908 4.908 0 0 1-.802.122c-1.106.081-2.217.081-3.323 0a24.04 24.04 0 0 1-5.03-.958 25.303 25.303 0 0 1-7.88-4.036 29.787 29.787 0 0 1-5.937-5.87c-.268-.36-.513-.718-.766-1.077a.128.128 0 0 1-.006-.133.13.13 0 0 1 .114-.068H85.71a26.292 26.292 0 0 1 3.319.161A29.72 29.72 0 0 1 97.189 6.8a24.182 24.182 0 0 1 9.549 7.14c.565.69 1.074 1.423 1.524 2.193.068.115.128.235.18.359-.007-.018-.032.014-.04.078zM16.58 120.475c.206-.152.433-.273.675-.359a12.525 12.525 0 0 1 2.69-.746 17.356 17.356 0 0 1 1.976-.19h.816c1.518.053 3.024.294 4.482.717a39.712 39.712 0 0 1 5.283 1.974c1.983.89 3.922 1.876 5.847 2.888.755.399 1.51.804 2.26 1.206.102.058.2.121.293.19a.118.118 0 0 1 .026.1.79.79 0 0 1-.145.184 8.61 8.61 0 0 1-1.332 1.03 10.78 10.78 0 0 1-3.442 1.385 13.447 13.447 0 0 1-4.009.218 16.052 16.052 0 0 1-4.192-.972 25.76 25.76 0 0 1-4.255-2.02 32.16 32.16 0 0 1-6.608-5.12 4.686 4.686 0 0 1-.318-.341.429.429 0 0 1-.047-.144zM118.984 129.12a11.501 11.501 0 0 1-3.853-.593 9.707 9.707 0 0 1-3.34-1.859c-.553-.477-.56-.448.075-.79 2.376-1.277 4.767-2.532 7.223-3.673a46.032 46.032 0 0 1 4.528-1.852 23.74 23.74 0 0 1 2.857-.804 18.856 18.856 0 0 1 2.192-.316c.932-.08 1.869-.073 2.799.022 1.26.11 2.497.411 3.665.893.145.061.286.122.423.194.238.119.253.198.072.384a30.136 30.136 0 0 1-3.015 2.734 30.777 30.777 0 0 1-6.158 3.854 20.743 20.743 0 0 1-3.72 1.35 14.68 14.68 0 0 1-3.748.455zM129.493 25a9.963 9.963 0 0 1-.849 4.115 8.971 8.971 0 0 1-2.073 2.917c-.155.147-.321.28-.487.416a.142.142 0 0 1-.159 0 1.611 1.611 0 0 1-.134-.186c-.159-.27-.31-.538-.465-.808-1.142-2.03-2.258-4.072-3.262-6.16a41.319 41.319 0 0 1-1.971-4.708 19.1 19.1 0 0 1-.723-2.87 14.262 14.262 0 0 1-.14-3.7c.095-1.08.366-2.138.801-3.133a6.03 6.03 0 0 1 .578-1.076c.08-.115.177-.126.293-.03l.086.076a30.634 30.634 0 0 1 5.973 7.177 20.572 20.572 0 0 1 1.853 3.929c.298.884.499 1.797.6 2.723.05.427.054.872.079 1.317zM33.167 15.336a15.421 15.421 0 0 1-.791 4.83 34.734 34.734 0 0 1-1.643 4.144 69.736 69.736 0 0 1-2.142 4.245c-.61 1.12-1.235 2.232-1.867 3.348-.094.169-.198.33-.3.495a.144.144 0 0 1-.202.047c-.177-.15-.36-.294-.527-.456a9.153 9.153 0 0 1-2.582-4.575 10.442 10.442 0 0 1-.26-2.067c-.042-1.59.222-3.173.776-4.664a21.614 21.614 0 0 1 1.867-3.843 29.809 29.809 0 0 1 4.287-5.472c.491-.496 1.008-.966 1.513-1.436.069-.064.152-.118.228-.18a.138.138 0 0 1 .159.022c.06.075.117.153.17.234a8.7 8.7 0 0 1 .931 2.239c.273 1.007.402 2.047.383 3.09zM130.89 32.226a15.058 15.058 0 0 1 .564-4.837c.377-1.36.988-2.644 1.806-3.796.278-.392.598-.753.953-1.077a.149.149 0 0 1 .246.025l.068.094c.047.06.09.125.134.19a29.078 29.078 0 0 1 3.835 8.274c.284 1.004.49 2.029.614 3.065.137 1.056.148 2.124.033 3.182a10.802 10.802 0 0 1-2.272 5.627 9.64 9.64 0 0 1-2.784 2.357c-.101.054-.206.1-.314.15a.16.16 0 0 1-.195-.07 6.938 6.938 0 0 1-.149-.439 99.107 99.107 0 0 1-1.715-6.742 44.647 44.647 0 0 1-.592-3.366 38.857 38.857 0 0 1-.231-2.637zM29.115 115.634c-.087.058-.177.13-.275.19a9.839 9.839 0 0 1-2.751 1.077 11.004 11.004 0 0 1-3.706.219 13.449 13.449 0 0 1-4.564-1.313 19.015 19.015 0 0 1-3.525-2.247 29.58 29.58 0 0 1-5.68-6.028 27.74 27.74 0 0 1-1.301-1.991.357.357 0 0 1-.065-.287c.294-.14.61-.226.935-.251a12.51 12.51 0 0 1 3.25-.112 15.49 15.49 0 0 1 4.724 1.188c.87.379 1.715.812 2.528 1.299a39.864 39.864 0 0 1 4.124 2.831c1.734 1.338 3.402 2.76 5.056 4.202.362.32.723.642 1.084.965a.359.359 0 0 1 .166.258zM21.434 32.212a35.41 35.41 0 0 1-.26 2.813 61.659 61.659 0 0 1-1.51 7.14c-.253.955-.52 1.902-.787 2.853a2.716 2.716 0 0 1-.166.43.109.109 0 0 1-.098.04.802.802 0 0 1-.22-.075 9.214 9.214 0 0 1-2.07-1.493 9.853 9.853 0 0 1-2.55-3.972 12.149 12.149 0 0 1-.638-4.851 21.707 21.707 0 0 1 1.264-5.817 29.048 29.048 0 0 1 3.188-6.366c.094-.147.199-.287.3-.427a.123.123 0 0 1 .17-.025c.061.046.12.095.177.147.33.332.628.692.892 1.077a12.306 12.306 0 0 1 1.863 4.087 15.11 15.11 0 0 1 .445 4.439zM145.09 105.254a.642.642 0 0 1-.021.18c-.072.14-.152.272-.231.401a30.25 30.25 0 0 1-6.14 7.176 21.182 21.182 0 0 1-3.524 2.458 14.46 14.46 0 0 1-4.37 1.547 11.8 11.8 0 0 1-3.138.13 10.035 10.035 0 0 1-4.088-1.257c-.116-.064-.228-.143-.34-.219a.093.093 0 0 1 0-.147c.069-.072.134-.14.206-.204 2.127-1.898 4.283-3.76 6.558-5.48a37.571 37.571 0 0 1 3.662-2.475 21.24 21.24 0 0 1 2.218-1.152 16.002 16.002 0 0 1 4.528-1.256 15.127 15.127 0 0 1 2.792-.061 8.41 8.41 0 0 1 1.495.23c.137.028.26.082.394.129zM16.937 103.7a11.51 11.51 0 0 1-4.503-.994 13.643 13.643 0 0 1-3.611-2.329 20.416 20.416 0 0 1-2.73-3.01 29.43 29.43 0 0 1-4.287-8.26c-.04-.108-.069-.223-.098-.334a.157.157 0 0 1 .148-.201c.076-.017.154-.026.231-.029.293 0 .585 0 .874.018 2.476.19 4.86 1.018 6.916 2.4.717.471 1.4.993 2.04 1.562a32.752 32.752 0 0 1 3.016 3.064 56.92 56.92 0 0 1 2.89 3.588c.776 1.04 1.53 2.096 2.296 3.147.112.158.22.316.329.477.108.162.112.273-.094.36a4.492 4.492 0 0 1-.61.2 11.06 11.06 0 0 1-2.807.341zM150.634 88.701c-.032.119-.061.251-.105.38a29.24 29.24 0 0 1-4.694 8.767 18.266 18.266 0 0 1-3.095 3.143 12.808 12.808 0 0 1-4.54 2.304c-1.056.298-2.153.43-3.25.39a10.21 10.21 0 0 1-2.748-.466c-.112-.032-.22-.075-.33-.118a.144.144 0 0 1-.079-.19c.058-.1.12-.201.185-.295 1.513-2.153 3.073-4.28 4.767-6.3a34.598 34.598 0 0 1 3.665-3.815 17.65 17.65 0 0 1 2.673-1.96 14.737 14.737 0 0 1 4.543-1.754 12.278 12.278 0 0 1 2.141-.247c.213 0 .426 0 .64.025a.25.25 0 0 1 .227.136zM14.492 55.065c0 1.435-.072 2.87-.155 4.288-.006.095-.018.19-.036.283a.134.134 0 0 1-.137.08c-.188-.054-.361-.097-.56-.158a10.086 10.086 0 0 1-4.937-3.632 11.898 11.898 0 0 1-2.011-4.403 16.143 16.143 0 0 1-.387-2.633 20.09 20.09 0 0 1-.054-2.085c.039-1.08.135-2.159.29-3.23.272-1.83.714-3.632 1.32-5.382.077-.219.167-.434.254-.65a.163.163 0 0 1 .202-.06c.148.086.303.172.444.272.617.44 1.184.944 1.694 1.504a13.836 13.836 0 0 1 2.983 5.196c.255.811.452 1.64.588 2.48.302 1.778.463 3.578.484 5.381.008.894.011 1.823.018 2.75zM146.123 47.3a20.39 20.39 0 0 1-.325 3.631 11.862 11.862 0 0 1-2.708 5.699 9.876 9.876 0 0 1-4.735 3.039c-.054.018-.112.028-.17.043a.142.142 0 0 1-.173-.104 1.427 1.427 0 0 1-.025-.172 85.676 85.676 0 0 1-.098-8.286 30.67 30.67 0 0 1 .557-4.833 15.278 15.278 0 0 1 1.762-4.762 12.68 12.68 0 0 1 2.907-3.448c.28-.24.584-.452.907-.631a.174.174 0 0 1 .242.082c.045.108.089.215.13.323a29.483 29.483 0 0 1 1.296 4.866c.126.717.235 1.435.303 2.181.073.79.134 1.58.13 2.372zM2.167 53.967c.074-.01.15-.01.224 0 .385.135.759.302 1.116.499 1.304.697 2.48 1.61 3.477 2.698a15.194 15.194 0 0 1 2.586 3.84 29.207 29.207 0 0 1 1.51 3.947c.466 1.514.838 3.053 1.173 4.603.29 1.342.542 2.688.78 4.04.06.259.095.522.105.787a.392.392 0 0 1-.292.071 7.22 7.22 0 0 1-1.21-.168 10.615 10.615 0 0 1-5.977-3.589 12.78 12.78 0 0 1-2.167-3.556c-.45-1.111-.8-2.26-1.043-3.433a28.098 28.098 0 0 1-.506-3.556 31.375 31.375 0 0 1-.061-3.589c.028-.81.101-1.619.22-2.422a.95.95 0 0 1 .065-.172zM150.46 57.85c.022.958-.02 1.917-.122 2.87a23.645 23.645 0 0 1-1.264 5.82 13.484 13.484 0 0 1-2.347 4.112 10.556 10.556 0 0 1-6.93 3.793c-.175.013-.35.013-.524 0-.026 0-.058-.047-.069-.079a.193.193 0 0 1 0-.111 74.882 74.882 0 0 1 1.95-8.942A28.89 28.89 0 0 1 142.783 61c.75-1.602 1.78-3.06 3.04-4.306.897-.89 1.922-1.64 3.041-2.228.33-.169.672-.309 1.008-.456a.915.915 0 0 1 .17-.047.163.163 0 0 1 .173.115c.036.287.09.574.112.861.103.967.148 1.939.134 2.91zM13.676 89.25a10.593 10.593 0 0 1-5.37-1.493 12.636 12.636 0 0 1-3.525-3.085 17.945 17.945 0 0 1-1.971-3.14A27.138 27.138 0 0 1 .82 76.15a30.538 30.538 0 0 1-.787-4.27c0-.17 0-.36-.022-.517a.148.148 0 0 1 .162-.13c.304.054.614.098.914.173a13.085 13.085 0 0 1 4.294 2.01 15.214 15.214 0 0 1 3.214 3.013 29.25 29.25 0 0 1 2.6 3.915 54.54 54.54 0 0 1 2.203 4.407 210.7 210.7 0 0 1 1.61 3.724c.07.162.12.327.174.492a.154.154 0 0 1-.108.176 1.98 1.98 0 0 1-.285.05l-1.113.057zM138.475 89.243c-.242 0-.647-.036-1.055-.065a.682.682 0 0 1-.22-.068.122.122 0 0 1-.058-.09c.024-.112.056-.222.097-.33.972-2.4 2.012-4.772 3.207-7.076a33.87 33.87 0 0 1 2.615-4.305 16.756 16.756 0 0 1 2.777-3.043 14.107 14.107 0 0 1 4.576-2.605 12.935 12.935 0 0 1 1.52-.391c.077-.013.154-.02.231-.022.08-.004.15.054.16.133 0 .173-.006.347-.023.52-.093.764-.195 1.532-.36 2.29a29.804 29.804 0 0 1-1.6 5.5 21.944 21.944 0 0 1-1.994 3.857 13.662 13.662 0 0 1-2.676 3.043 11.285 11.285 0 0 1-4.399 2.308 9.966 9.966 0 0 1-2.798.344zM37.645 21.612c.166-.108.34-.23.52-.34a27.445 27.445 0 0 1 8.335-3.363 18.103 18.103 0 0 1 4.168-.47c1.931 0 3.838.428 5.583 1.252 1.376.65 2.59 1.593 3.557 2.763.231.284.437.592.646.894.076.11.026.218-.119.258-.924.237-1.842.48-2.766.718-1.3.322-2.611.613-3.93.86-.895.17-1.805.32-2.7.438a29.8 29.8 0 0 1-3.2.252c-.758.025-1.517.003-2.272-.069a16.078 16.078 0 0 1-3.972-.904 14.077 14.077 0 0 1-2.962-1.478c-.274-.183-.534-.391-.798-.589a.218.218 0 0 1-.09-.222zM114.69 21.644a.298.298 0 0 1-.12.198c-.263.193-.523.401-.797.584-1.12.73-2.335 1.3-3.612 1.698-1.71.533-3.495.787-5.287.75a31.635 31.635 0 0 1-4.24-.36c-2.058-.308-4.088-.756-6.106-1.251-.83-.201-1.654-.424-2.481-.64a.478.478 0 0 1-.156-.075.104.104 0 0 1-.036-.096c.033-.092.076-.178.13-.259a9.75 9.75 0 0 1 2.275-2.386 11.37 11.37 0 0 1 3.912-1.884c1.277-.35 2.6-.51 3.925-.473.913.025 1.824.118 2.723.276a26.9 26.9 0 0 1 9.415 3.588c.167.088.32.199.455.33zM43.174 119.338c0 1.842-.397 3.664-1.163 5.342-.155.376-.356.73-.6 1.055a.163.163 0 0 1-.162 0c-.032-.021-.065-.04-.097-.064l-.174-.15a23.53 23.53 0 0 1-4.666-5.674 16.677 16.677 0 0 1-1.567-3.549 10.378 10.378 0 0 1-.419-3.893 9.406 9.406 0 0 1 1.044-3.588 10.327 10.327 0 0 1 2.452-3.068c.075-.062.154-.117.238-.165a.12.12 0 0 1 .105 0c.064.07.12.148.17.23.36.624.704 1.248 1.04 1.88a42.886 42.886 0 0 1 2.571 5.709c.373 1.016.68 2.055.917 3.11.205.928.31 1.875.311 2.825zM110.963 125.768a.952.952 0 0 1-.278-.36 10.703 10.703 0 0 1-.939-2.18 12.936 12.936 0 0 1-.578-4.58c.06-1.003.226-1.998.495-2.967.4-1.454.9-2.878 1.499-4.263a51.684 51.684 0 0 1 2.824-5.59c.049-.082.106-.159.17-.23a.109.109 0 0 1 .104 0c.07.033.134.075.192.126a9.83 9.83 0 0 1 3.25 10.093 14.975 14.975 0 0 1-1.181 3.083 22.277 22.277 0 0 1-3.973 5.483c-.43.445-.895.857-1.343 1.284a.322.322 0 0 1-.242.1zM33.412 34.379c-1.85.01-3.686-.318-5.417-.969a13.6 13.6 0 0 1-.91-.391c-.3-.14-.325-.223-.104-.456l.04-.043a24.341 24.341 0 0 1 8.01-5.41 15.604 15.604 0 0 1 3.25-.955 8.83 8.83 0 0 1 1.506-.165c.483 0 .971-.026 1.444 0a11.185 11.185 0 0 1 7.053 2.953c.057.052.11.109.159.168a.14.14 0 0 1-.043.198l-.362.193a77.247 77.247 0 0 1-4.81 2.35 37.743 37.743 0 0 1-4.185 1.598c-.983.304-1.984.543-2.998.717-.87.145-1.75.216-2.633.212zM119.175 34.372a16.925 16.925 0 0 1-4.597-.556 31.261 31.261 0 0 1-4.135-1.393c-2.167-.882-4.243-1.912-6.302-3a1.207 1.207 0 0 1-.238-.16.104.104 0 0 1-.025-.101.41.41 0 0 1 .1-.137 9.926 9.926 0 0 1 1.355-1.098 11.362 11.362 0 0 1 4.854-1.844c.983-.131 1.977-.15 2.965-.054 1.083.11 2.15.35 3.174.718a21.677 21.677 0 0 1 4.785 2.372c1.468.949 2.83 2.05 4.063 3.286.108.113.208.233.3.36a.1.1 0 0 1 0 .103c-.072.064-.15.118-.235.162-.506.247-1.03.456-1.567.624-.89.28-1.802.482-2.727.606-.686.087-1.409.094-1.77.112zM31.646 95.052c.106.093.173.22.188.36.235.893.484 1.793.7 2.69a38.34 38.34 0 0 1 .687 3.7c.223 1.53.311 3.076.264 4.621a13.388 13.388 0 0 1-1.445 5.562 12.675 12.675 0 0 1-1.806 2.695c-.14.158-.292.312-.444.46a1.35 1.35 0 0 1-.198.143 2.077 2.077 0 0 1-.192-.23 21.746 21.746 0 0 1-3.34-7.844 13.43 13.43 0 0 1-.278-2.992 10.434 10.434 0 0 1 5.518-9.003c.119-.058.235-.108.346-.162zM120.649 95.045c.105.043.177.065.245.1a10.383 10.383 0 0 1 5.215 6.187c.275.886.424 1.807.444 2.734a15.426 15.426 0 0 1-.635 4.629 22.231 22.231 0 0 1-2.925 6.283c-.073.107-.123.244-.271.283a.823.823 0 0 1-.318-.247 10.42 10.42 0 0 1-1.037-1.249 13.532 13.532 0 0 1-2.325-5.512c-.13-.721-.2-1.452-.213-2.185-.01-1.236.06-2.472.21-3.7.295-2.356.778-4.686 1.444-6.968.021-.074.046-.147.076-.218.025-.036.06-.065.09-.137zM19.223 45.772a.81.81 0 0 1 .03-.18c.032-.07.069-.139.111-.204a22.984 22.984 0 0 1 5.818-6.423 14.69 14.69 0 0 1 3.54-1.999c.835-.314 1.702-.54 2.585-.671a11.034 11.034 0 0 1 2.503-.086c1.812.122 3.566.682 5.11 1.633.032.021.061.05.09.071a.107.107 0 0 1 .022.151c-.083.083-.163.165-.253.24a57.602 57.602 0 0 1-5.251 4.141 27.714 27.714 0 0 1-3.395 2.035 16.318 16.318 0 0 1-3.77 1.385c-.663.15-1.335.258-2.012.323-.6.063-1.202.09-1.805.082-.934-.02-1.864-.13-2.777-.326l-.336-.09c-.062-.021-.134-.054-.21-.082zM133.09 45.768a3.183 3.183 0 0 1-.997.27 14.507 14.507 0 0 1-3.077.229 15.734 15.734 0 0 1-5.554-1.202 23.555 23.555 0 0 1-3.348-1.755 38.686 38.686 0 0 1-3.701-2.627 135.059 135.059 0 0 1-2.647-2.181c-.163-.137-.315-.287-.47-.434a.1.1 0 0 1 0-.151c.065-.043.126-.093.191-.133a11.486 11.486 0 0 1 6.934-1.56c1.3.117 2.571.45 3.76.986a16.214 16.214 0 0 1 3.409 2.103 23.126 23.126 0 0 1 5.323 6.024c.09.126.21.234.177.43zM27.847 83.563c.033.072.057.148.073.226.025.247.046.499.054.75.043 1.22.057 2.436 0 3.653a33.013 33.013 0 0 1-.672 5.518 14.632 14.632 0 0 1-1.9 4.773 14.107 14.107 0 0 1-3.524 3.825c-.22.161-.455.298-.683.445a.149.149 0 0 1-.202-.05c-.04-.09-.083-.176-.116-.266a22.873 22.873 0 0 1-.95-3.524 20.431 20.431 0 0 1-.324-4.962c.05-1.16.26-2.307.624-3.41a10.86 10.86 0 0 1 7.093-6.838c.17-.054.34-.097.527-.14zM124.466 83.566c.148.033.282.054.408.094a10.936 10.936 0 0 1 5.656 3.893 10.4 10.4 0 0 1 1.841 3.972c.214.922.335 1.864.361 2.81.03.774.017 1.549-.04 2.321a22.21 22.21 0 0 1-1.268 5.817c-.034.09-.079.175-.132.255a.12.12 0 0 1-.098.035.899.899 0 0 1-.21-.09 8.794 8.794 0 0 1-1.126-.825 14.081 14.081 0 0 1-4.695-7.564 28.78 28.78 0 0 1-.621-3.588 42.699 42.699 0 0 1-.192-5.963c0-.309.033-.618.058-.926.014-.082.033-.162.058-.24zM32.304 48.316a.714.714 0 0 1-.047.157 6.98 6.98 0 0 1-.231.338 54.261 54.261 0 0 1-3.442 4.306 28.556 28.556 0 0 1-3.203 3.125 16.11 16.11 0 0 1-3.312 2.153 15.523 15.523 0 0 1-4.503 1.36 14.85 14.85 0 0 1-2.033.136c-.215.02-.431-.002-.636-.068a.097.097 0 0 1-.05-.082c.01-.096.03-.19.06-.28.368-1.122.83-2.21 1.38-3.255a21.264 21.264 0 0 1 2.926-4.306c.701-.8 1.488-1.522 2.347-2.153a11.287 11.287 0 0 1 8.274-2.08c.736.098 1.462.267 2.166.501.075.023.147.052.217.087.018.007.05.035.087.06zM124.072 47.548a11.305 11.305 0 0 1 7.155 2.54c.92.742 1.752 1.584 2.48 2.512a22.662 22.662 0 0 1 3.655 6.685c.026.072.047.147.072.222.098.312.073.36-.278.36-.252 0-.505.02-.758 0a15.163 15.163 0 0 1-5.648-1.271 15.992 15.992 0 0 1-3.832-2.397 27.116 27.116 0 0 1-2.766-2.652 52.75 52.75 0 0 1-3.933-4.883c-.065-.094-.126-.194-.188-.291a.118.118 0 0 1 .054-.144c.199-.075.394-.161.6-.222a11.288 11.288 0 0 1 3.387-.46zM136.806 86.157c.001.79-.044 1.58-.137 2.365a1.849 1.849 0 0 1-.098.387.105.105 0 0 1-.09.05.824.824 0 0 1-.227-.043 9.18 9.18 0 0 1-1.272-.574 14.517 14.517 0 0 1-6.193-6.197 28.355 28.355 0 0 1-1.896-4.732 45.432 45.432 0 0 1-1.26-5.358c0-.093-.022-.19-.03-.287a.167.167 0 0 1 .188-.172h.116c1.969.147 3.865.8 5.504 1.895a10.721 10.721 0 0 1 3.416 3.746 14.757 14.757 0 0 1 1.387 3.678c.25 1.034.418 2.086.505 3.147.058.656.087 1.313.087 2.095zM15.529 86.293a22.358 22.358 0 0 1 .7-5.773c.247-.956.59-1.884 1.026-2.77a10.78 10.78 0 0 1 7.273-5.842 13.83 13.83 0 0 1 1.839-.305c.077-.005.154-.005.23 0 .057.014.1.059.113.115.007.078.007.156 0 .233a38.847 38.847 0 0 1-2.293 8.307c-.317.77-.68 1.521-1.084 2.25a14.45 14.45 0 0 1-6.685 6.168c-.227.108-.465.19-.7.28-.13.047-.224 0-.253-.158a2.497 2.497 0 0 1-.047-.287c-.065-.825-.159-1.654-.12-2.218zM28.169 59.669a.488.488 0 0 1 0 .133 1.182 1.182 0 0 1-.069.218 42.275 42.275 0 0 1-3.182 6.362 27.562 27.562 0 0 1-2.022 2.839 14.815 14.815 0 0 1-7.584 4.937c-.39.111-.79.19-1.192.273-.12.017-.24.017-.36 0-.03 0-.073-.047-.077-.076a1.27 1.27 0 0 1 0-.287 22.295 22.295 0 0 1 2.384-7.951 14.919 14.919 0 0 1 1.661-2.512 10.996 10.996 0 0 1 6.215-3.818c1.027-.23 2.081-.315 3.131-.251.368.022.733.066 1.095.133zM125.914 59.518a11.188 11.188 0 0 1 9.104 4.615 17.065 17.065 0 0 1 1.914 3.376 21.968 21.968 0 0 1 1.528 5.217c.065.402.123.804.177 1.206.016.119.025.239.025.359 0 .115-.068.197-.17.186a3.772 3.772 0 0 1-.404-.05 13.332 13.332 0 0 1-2.676-.793 14.822 14.822 0 0 1-5.944-4.381 29.862 29.862 0 0 1-2.911-4.335 44.597 44.597 0 0 1-2.304-4.811c-.043-.108-.076-.22-.112-.33 0-.04.043-.119.09-.126a9.103 9.103 0 0 1 1.683-.133zM50.333 138.999a1.331 1.331 0 0 1-1.333-1.33v-6.428c0-.5.213-.976.587-1.31l4.085-3.65a1.104 1.104 0 0 1 1.47 0l4.099 3.65c.372.335.585.81.584 1.31v6.429c.001.352-.14.69-.39.94s-.59.39-.943.389h-8.159zm43.264 0a1.331 1.331 0 0 1-1.334-1.33v-6.428c0-.5.214-.976.587-1.31l4.086-3.65a1.104 1.104 0 0 1 1.47 0l4.087 3.65c.374.334.587.81.587 1.31v6.429c0 .734-.597 1.329-1.333 1.329h-8.15zm-21.632 0a1.331 1.331 0 0 1-1.333-1.33v-6.428c0-.5.213-.976.586-1.31l4.086-3.65a1.104 1.104 0 0 1 1.47 0l4.088 3.65c.373.334.586.81.586 1.31v6.429c0 .734-.597 1.329-1.333 1.329h-8.15zm10.817 13a1.331 1.331 0 0 1-1.334-1.328v-6.43c0-.5.212-.976.585-1.31l4.09-3.652a1.104 1.104 0 0 1 1.47 0l4.077 3.652c.373.333.587.81.587 1.31v6.426c0 .734-.597 1.329-1.334 1.329l-8.141.004zm-13.484 0h-8.137a1.327 1.327 0 0 1-1.346-1.333v-6.426c0-.5.213-.976.586-1.31l4.088-3.65a1.104 1.104 0 0 1 1.47 0l4.086 3.65c.373.334.586.81.587 1.31v6.427A1.336 1.336 0 0 1 69.299 152z"/>
    </g>
</svg>
