<svg xmlns="http://www.w3.org/2000/svg" width="41" height="40" viewBox="0 0 41 40">
    <g fill="#FFF" fill-rule="evenodd" opacity=".5">
        <path d="M.513 20.328C.513 9.463 9.389.656 20.339.656c10.95 0 19.826 8.807 19.826 19.672C40.165 31.192 31.29 40 20.34 40 9.39 40 .513 31.192.513 20.328zm19.813.316c2.923 0 5.3-2.277 5.3-5.075 0-2.8-2.377-5.077-5.3-5.077s-5.3 2.277-5.3 5.077c0 2.798 2.377 5.075 5.3 5.075zm2.158 4.143a10.176 10.176 0 0 0 3.077-1.22c.726-.439.944-1.357.487-2.051-.457-.697-1.415-.906-2.141-.468a6.982 6.982 0 0 1-7.136 0c-.727-.438-1.685-.229-2.14.468-.458.695-.24 1.612.485 2.05.959.576 2 .986 3.078 1.221l-2.963 2.838a1.444 1.444 0 0 0 0 2.103c.304.29.701.436 1.098.436.398 0 .796-.146 1.099-.436l2.91-2.789 2.914 2.79a1.6 1.6 0 0 0 2.195 0 1.442 1.442 0 0 0 0-2.104l-2.963-2.838z"/>
        <path d="M20.326 13.467c1.21 0 2.194.942 2.194 2.102 0 1.158-.984 2.1-2.194 2.1s-2.195-.942-2.195-2.1c0-1.16.985-2.102 2.195-2.102z"/>
    </g>
</svg>
