<svg xmlns="http://www.w3.org/2000/svg" width="25" height="31" viewBox="0 0 25 31">
    <path fill="#FF7200" fill-rule="nonzero" d="M11.429 0a.719.719 0 0 0-.505.206L5.926 5.138.924 10.073a.688.688 0 0 0-.21.495v17.614C.714 29.737 1.995 31 3.571 31h18.572C23.719 31 25 29.737 25 28.182V2.818C25 1.263 23.72 0 22.143 0H11.429zm.295 1.41h9.705l-3.572 3.522H8.153l3.571-3.523zm-8.153.704a.72.72 0 0 0-.505.206L.21 5.138a.698.698 0 0 0 0 .996l1.342 1.324L5.42 3.644 4.076 2.32a.72.72 0 0 0-.505-.206zm9.286 9.863s4.286 4.72 4.286 7.33c0 2.182-1.928 3.943-4.286 3.943-2.358 0-4.286-1.761-4.286-3.944 0-2.609 4.286-7.329 4.286-7.329z"/>
</svg>
