<svg xmlns="http://www.w3.org/2000/svg" width="40" height="40" viewBox="0 0 40 40">
    <path fill="#FFF" fill-rule="evenodd" d="M.348 20.328C.348 9.463 9.224.656 20.174.656 31.124.656 40 9.463 40 20.328 40 31.192 31.124 40 20.174 40 9.224 40 .348 31.192.348 20.328zm19.232-3.683l.042.681-.694-.083c-2.524-.32-4.729-1.403-6.6-3.223l-.916-.903-.236.667c-.5 1.486-.18 3.056.86 4.112.555.583.43.667-.527.32-.333-.112-.624-.195-.652-.154-.097.098.236 1.362.5 1.862.36.695 1.095 1.375 1.9 1.778l.679.32-.804.014c-.777 0-.805.013-.722.305.278.903 1.373 1.862 2.594 2.278l.86.292-.75.445c-1.109.639-2.412 1-3.716 1.028-.624.014-1.137.07-1.137.11 0 .14 1.692.918 2.676 1.223 2.954.903 6.463.514 9.098-1.028 1.872-1.097 3.744-3.278 4.618-5.39.471-1.125.943-3.181.943-4.167 0-.64.041-.723.818-1.487.458-.444.888-.93.97-1.07.14-.263.126-.263-.582-.027-1.178.417-1.345.361-.762-.264.43-.445.943-1.25.943-1.487 0-.041-.208.028-.444.153-.25.14-.805.348-1.22.473l-.75.236-.679-.459c-.374-.25-.901-.528-1.179-.61-.707-.195-1.789-.168-2.427.055-1.733.625-2.829 2.236-2.704 4z" opacity=".5"/>
</svg>
