<svg xmlns="http://www.w3.org/2000/svg" width="40" height="40" viewBox="0 0 40 40">
    <path fill="#FFF" fill-rule="evenodd" d="M.087 19.672C.087 8.808 8.963 0 19.913 0c10.95 0 19.826 8.808 19.826 19.672 0 10.865-8.876 19.672-19.826 19.672-10.95 0-19.826-8.807-19.826-19.672zm20.863 5.8s.382-.041.577-.246c.18-.187.173-.54.173-.54s-.024-1.652.763-1.896c.776-.24 1.772 1.597 2.83 2.303.798.534 1.404.417 1.404.417l2.825-.038s1.477-.088.777-1.22c-.058-.092-.409-.837-2.1-2.366-1.772-1.601-1.534-1.342.599-4.112 1.299-1.686 1.818-2.716 1.656-3.156-.154-.42-1.11-.309-1.11-.309l-3.18.02s-.236-.032-.41.07c-.171.1-.282.332-.282.332s-.502 1.305-1.174 2.415c-1.416 2.341-1.981 2.465-2.213 2.32-.54-.34-.405-1.362-.405-2.088 0-2.27.354-3.216-.687-3.46-.346-.083-.6-.136-1.485-.145-1.134-.011-2.094.004-2.638.263-.362.172-.642.557-.47.58.209.026.685.124.937.459.326.432.315 1.4.315 1.4s.187 2.673-.438 3.004c-.428.228-1.016-.237-2.279-2.361-.646-1.088-1.134-2.291-1.134-2.291s-.094-.225-.263-.346c-.204-.146-.488-.191-.488-.191l-3.021.019s-.455.012-.621.204c-.148.17-.011.524-.011.524s2.365 5.391 5.044 8.108c2.457 2.49 5.245 2.327 5.245 2.327h1.264z" opacity=".5"/>
</svg>
